<svg width="1200" height="620" viewBox="0 0 1200 620" fill="none" xmlns="http://www.w3.org/2000/svg">
  <defs>
    <linearGradient id="bg" x1="0" y1="0" x2="1200" y2="620" gradientUnits="userSpaceOnUse">
      <stop offset="0" stop-color="#0B1020"/>
      <stop offset="0.56" stop-color="#111827"/>
      <stop offset="1" stop-color="#16122A"/>
    </linearGradient>
    <linearGradient id="accent" x1="72" y1="122" x2="1130" y2="438" gradientUnits="userSpaceOnUse">
      <stop offset="0" stop-color="#00C2A8"/>
      <stop offset="0.55" stop-color="#38BDF8"/>
      <stop offset="1" stop-color="#A78BFA"/>
    </linearGradient>
    <pattern id="grid" width="44" height="44" patternUnits="userSpaceOnUse">
      <path d="M44 0H0V44" stroke="#263244" stroke-width="1" opacity="0.42"/>
    </pattern>
  </defs>
  <rect width="1200" height="620" rx="22" fill="url(#bg)"/>
  <rect width="1200" height="620" rx="22" fill="url(#grid)" opacity="0.18"/>
  <path d="M74 460C204 390 326 415 468 376C624 334 734 232 874 214C984 200 1062 232 1130 270" stroke="url(#accent)" stroke-width="2" opacity="0.42"/>

  <text x="64" y="68" fill="#E5E7EB" font-family="Inter, Segoe UI, Arial, sans-serif" font-size="34" font-weight="800">Zone01 Development Timeline</text>
  <text x="64" y="101" fill="#94A3B8" font-family="JetBrains Mono, Consolas, monospace" font-size="16">
    2026-01-07 - 2026-07-10 • 185 days • source: waiting for Gitea token • updated 2026-07-10
  </text>

  <g transform="translate(64 126)">
    <rect width="254" height="72" rx="14" fill="#111827" stroke="#2A3A4D"/>
    <text x="22" y="28" fill="#94A3B8" font-family="JetBrains Mono, Consolas, monospace" font-size="14">Total commits</text>
    <text x="22" y="58" fill="#6EA8FE" font-family="Inter, Segoe UI, Arial, sans-serif" font-size="30" font-weight="800">0</text>
  </g>
  <g transform="translate(338 126)">
    <rect width="254" height="72" rx="14" fill="#111827" stroke="#2A3A4D"/>
    <text x="22" y="28" fill="#94A3B8" font-family="JetBrains Mono, Consolas, monospace" font-size="14">Push days</text>
    <text x="22" y="58" fill="#00C2A8" font-family="Inter, Segoe UI, Arial, sans-serif" font-size="30" font-weight="800">0</text>
  </g>
  <g transform="translate(612 126)">
    <rect width="254" height="72" rx="14" fill="#111827" stroke="#2A3A4D"/>
    <text x="22" y="28" fill="#94A3B8" font-family="JetBrains Mono, Consolas, monospace" font-size="14">Active days</text>
    <text x="22" y="58" fill="#00C2A8" font-family="Inter, Segoe UI, Arial, sans-serif" font-size="30" font-weight="800">0</text>
  </g>
  <g transform="translate(886 126)">
    <rect width="250" height="72" rx="14" fill="#111827" stroke="#2A3A4D"/>
    <text x="22" y="28" fill="#94A3B8" font-family="JetBrains Mono, Consolas, monospace" font-size="14">Repos with commits</text>
    <text x="22" y="58" fill="#38BDF8" font-family="Inter, Segoe UI, Arial, sans-serif" font-size="30" font-weight="800">0</text>
  </g>

  <text x="78.0" y="198" fill="#64748B" font-family="JetBrains Mono, Consolas, monospace" font-size="12">Jan</text>
<text x="146.0" y="198" fill="#64748B" font-family="JetBrains Mono, Consolas, monospace" font-size="12">Feb</text>
<text x="214.0" y="198" fill="#64748B" font-family="JetBrains Mono, Consolas, monospace" font-size="12">Mar</text>
<text x="299.0" y="198" fill="#64748B" font-family="JetBrains Mono, Consolas, monospace" font-size="12">Apr</text>
<text x="367.0" y="198" fill="#64748B" font-family="JetBrains Mono, Consolas, monospace" font-size="12">May</text>
<text x="435.0" y="198" fill="#64748B" font-family="JetBrains Mono, Consolas, monospace" font-size="12">Jun</text>
<text x="520.0" y="198" fill="#64748B" font-family="JetBrains Mono, Consolas, monospace" font-size="12">Jul</text>
  <g opacity="0.96">
    <rect x="78.0" y="246.0" width="13" height="13" rx="3" fill="#162033"><title>2026-01-07: 0</title></rect><rect x="78.0" y="263.0" width="13" height="13" rx="3" fill="#162033"><title>2026-01-08: 0</title></rect><rect x="78.0" y="280.0" width="13" height="13" rx="3" fill="#162033"><title>2026-01-09: 0</title></rect><rect x="78.0" y="297.0" width="13" height="13" rx="3" fill="#162033"><title>2026-01-10: 0</title></rect><rect x="78.0" y="314.0" width="13" height="13" rx="3" fill="#162033"><title>2026-01-11: 0</title></rect><rect x="95.0" y="212.0" width="13" height="13" rx="3" fill="#162033"><title>2026-01-12: 0</title></rect><rect x="95.0" y="229.0" width="13" height="13" rx="3" fill="#162033"><title>2026-01-13: 0</title></rect><rect x="95.0" y="246.0" width="13" height="13" rx="3" fill="#162033"><title>2026-01-14: 0</title></rect><rect x="95.0" y="263.0" width="13" height="13" rx="3" fill="#162033"><title>2026-01-15: 0</title></rect><rect x="95.0" y="280.0" width="13" height="13" rx="3" fill="#162033"><title>2026-01-16: 0</title></rect><rect x="95.0" y="297.0" width="13" height="13" rx="3" fill="#162033"><title>2026-01-17: 0</title></rect><rect x="95.0" y="314.0" width="13" height="13" rx="3" fill="#162033"><title>2026-01-18: 0</title></rect><rect x="112.0" y="212.0" width="13" height="13" rx="3" fill="#162033"><title>2026-01-19: 0</title></rect><rect x="112.0" y="229.0" width="13" height="13" rx="3" fill="#162033"><title>2026-01-20: 0</title></rect><rect x="112.0" y="246.0" width="13" height="13" rx="3" fill="#162033"><title>2026-01-21: 0</title></rect><rect x="112.0" y="263.0" width="13" height="13" rx="3" fill="#162033"><title>2026-01-22: 0</title></rect><rect x="112.0" y="280.0" width="13" height="13" rx="3" fill="#162033"><title>2026-01-23: 0</title></rect><rect x="112.0" y="297.0" width="13" height="13" rx="3" fill="#162033"><title>2026-01-24: 0</title></rect><rect x="112.0" y="314.0" width="13" height="13" rx="3" fill="#162033"><title>2026-01-25: 0</title></rect><rect x="129.0" y="212.0" width="13" height="13" rx="3" fill="#162033"><title>2026-01-26: 0</title></rect><rect x="129.0" y="229.0" width="13" height="13" rx="3" fill="#162033"><title>2026-01-27: 0</title></rect><rect x="129.0" y="246.0" width="13" height="13" rx="3" fill="#162033"><title>2026-01-28: 0</title></rect><rect x="129.0" y="263.0" width="13" height="13" rx="3" fill="#162033"><title>2026-01-29: 0</title></rect><rect x="129.0" y="280.0" width="13" height="13" rx="3" fill="#162033"><title>2026-01-30: 0</title></rect><rect x="129.0" y="297.0" width="13" height="13" rx="3" fill="#162033"><title>2026-01-31: 0</title></rect><rect x="129.0" y="314.0" width="13" height="13" rx="3" fill="#162033"><title>2026-02-01: 0</title></rect><rect x="146.0" y="212.0" width="13" height="13" rx="3" fill="#162033"><title>2026-02-02: 0</title></rect><rect x="146.0" y="229.0" width="13" height="13" rx="3" fill="#162033"><title>2026-02-03: 0</title></rect><rect x="146.0" y="246.0" width="13" height="13" rx="3" fill="#162033"><title>2026-02-04: 0</title></rect><rect x="146.0" y="263.0" width="13" height="13" rx="3" fill="#162033"><title>2026-02-05: 0</title></rect><rect x="146.0" y="280.0" width="13" height="13" rx="3" fill="#162033"><title>2026-02-06: 0</title></rect><rect x="146.0" y="297.0" width="13" height="13" rx="3" fill="#162033"><title>2026-02-07: 0</title></rect><rect x="146.0" y="314.0" width="13" height="13" rx="3" fill="#162033"><title>2026-02-08: 0</title></rect><rect x="163.0" y="212.0" width="13" height="13" rx="3" fill="#162033"><title>2026-02-09: 0</title></rect><rect x="163.0" y="229.0" width="13" height="13" rx="3" fill="#162033"><title>2026-02-10: 0</title></rect><rect x="163.0" y="246.0" width="13" height="13" rx="3" fill="#162033"><title>2026-02-11: 0</title></rect><rect x="163.0" y="263.0" width="13" height="13" rx="3" fill="#162033"><title>2026-02-12: 0</title></rect><rect x="163.0" y="280.0" width="13" height="13" rx="3" fill="#162033"><title>2026-02-13: 0</title></rect><rect x="163.0" y="297.0" width="13" height="13" rx="3" fill="#162033"><title>2026-02-14: 0</title></rect><rect x="163.0" y="314.0" width="13" height="13" rx="3" fill="#162033"><title>2026-02-15: 0</title></rect><rect x="180.0" y="212.0" width="13" height="13" rx="3" fill="#162033"><title>2026-02-16: 0</title></rect><rect x="180.0" y="229.0" width="13" height="13" rx="3" fill="#162033"><title>2026-02-17: 0</title></rect><rect x="180.0" y="246.0" width="13" height="13" rx="3" fill="#162033"><title>2026-02-18: 0</title></rect><rect x="180.0" y="263.0" width="13" height="13" rx="3" fill="#162033"><title>2026-02-19: 0</title></rect><rect x="180.0" y="280.0" width="13" height="13" rx="3" fill="#162033"><title>2026-02-20: 0</title></rect><rect x="180.0" y="297.0" width="13" height="13" rx="3" fill="#162033"><title>2026-02-21: 0</title></rect><rect x="180.0" y="314.0" width="13" height="13" rx="3" fill="#162033"><title>2026-02-22: 0</title></rect><rect x="197.0" y="212.0" width="13" height="13" rx="3" fill="#162033"><title>2026-02-23: 0</title></rect><rect x="197.0" y="229.0" width="13" height="13" rx="3" fill="#162033"><title>2026-02-24: 0</title></rect><rect x="197.0" y="246.0" width="13" height="13" rx="3" fill="#162033"><title>2026-02-25: 0</title></rect><rect x="197.0" y="263.0" width="13" height="13" rx="3" fill="#162033"><title>2026-02-26: 0</title></rect><rect x="197.0" y="280.0" width="13" height="13" rx="3" fill="#162033"><title>2026-02-27: 0</title></rect><rect x="197.0" y="297.0" width="13" height="13" rx="3" fill="#162033"><title>2026-02-28: 0</title></rect><rect x="197.0" y="314.0" width="13" height="13" rx="3" fill="#162033"><title>2026-03-01: 0</title></rect><rect x="214.0" y="212.0" width="13" height="13" rx="3" fill="#162033"><title>2026-03-02: 0</title></rect><rect x="214.0" y="229.0" width="13" height="13" rx="3" fill="#162033"><title>2026-03-03: 0</title></rect><rect x="214.0" y="246.0" width="13" height="13" rx="3" fill="#162033"><title>2026-03-04: 0</title></rect><rect x="214.0" y="263.0" width="13" height="13" rx="3" fill="#162033"><title>2026-03-05: 0</title></rect><rect x="214.0" y="280.0" width="13" height="13" rx="3" fill="#162033"><title>2026-03-06: 0</title></rect><rect x="214.0" y="297.0" width="13" height="13" rx="3" fill="#162033"><title>2026-03-07: 0</title></rect><rect x="214.0" y="314.0" width="13" height="13" rx="3" fill="#162033"><title>2026-03-08: 0</title></rect><rect x="231.0" y="212.0" width="13" height="13" rx="3" fill="#162033"><title>2026-03-09: 0</title></rect><rect x="231.0" y="229.0" width="13" height="13" rx="3" fill="#162033"><title>2026-03-10: 0</title></rect><rect x="231.0" y="246.0" width="13" height="13" rx="3" fill="#162033"><title>2026-03-11: 0</title></rect><rect x="231.0" y="263.0" width="13" height="13" rx="3" fill="#162033"><title>2026-03-12: 0</title></rect><rect x="231.0" y="280.0" width="13" height="13" rx="3" fill="#162033"><title>2026-03-13: 0</title></rect><rect x="231.0" y="297.0" width="13" height="13" rx="3" fill="#162033"><title>2026-03-14: 0</title></rect><rect x="231.0" y="314.0" width="13" height="13" rx="3" fill="#162033"><title>2026-03-15: 0</title></rect><rect x="248.0" y="212.0" width="13" height="13" rx="3" fill="#162033"><title>2026-03-16: 0</title></rect><rect x="248.0" y="229.0" width="13" height="13" rx="3" fill="#162033"><title>2026-03-17: 0</title></rect><rect x="248.0" y="246.0" width="13" height="13" rx="3" fill="#162033"><title>2026-03-18: 0</title></rect><rect x="248.0" y="263.0" width="13" height="13" rx="3" fill="#162033"><title>2026-03-19: 0</title></rect><rect x="248.0" y="280.0" width="13" height="13" rx="3" fill="#162033"><title>2026-03-20: 0</title></rect><rect x="248.0" y="297.0" width="13" height="13" rx="3" fill="#162033"><title>2026-03-21: 0</title></rect><rect x="248.0" y="314.0" width="13" height="13" rx="3" fill="#162033"><title>2026-03-22: 0</title></rect><rect x="265.0" y="212.0" width="13" height="13" rx="3" fill="#162033"><title>2026-03-23: 0</title></rect><rect x="265.0" y="229.0" width="13" height="13" rx="3" fill="#162033"><title>2026-03-24: 0</title></rect><rect x="265.0" y="246.0" width="13" height="13" rx="3" fill="#162033"><title>2026-03-25: 0</title></rect><rect x="265.0" y="263.0" width="13" height="13" rx="3" fill="#162033"><title>2026-03-26: 0</title></rect><rect x="265.0" y="280.0" width="13" height="13" rx="3" fill="#162033"><title>2026-03-27: 0</title></rect><rect x="265.0" y="297.0" width="13" height="13" rx="3" fill="#162033"><title>2026-03-28: 0</title></rect><rect x="265.0" y="314.0" width="13" height="13" rx="3" fill="#162033"><title>2026-03-29: 0</title></rect><rect x="282.0" y="212.0" width="13" height="13" rx="3" fill="#162033"><title>2026-03-30: 0</title></rect><rect x="282.0" y="229.0" width="13" height="13" rx="3" fill="#162033"><title>2026-03-31: 0</title></rect><rect x="282.0" y="246.0" width="13" height="13" rx="3" fill="#162033"><title>2026-04-01: 0</title></rect><rect x="282.0" y="263.0" width="13" height="13" rx="3" fill="#162033"><title>2026-04-02: 0</title></rect><rect x="282.0" y="280.0" width="13" height="13" rx="3" fill="#162033"><title>2026-04-03: 0</title></rect><rect x="282.0" y="297.0" width="13" height="13" rx="3" fill="#162033"><title>2026-04-04: 0</title></rect><rect x="282.0" y="314.0" width="13" height="13" rx="3" fill="#162033"><title>2026-04-05: 0</title></rect><rect x="299.0" y="212.0" width="13" height="13" rx="3" fill="#162033"><title>2026-04-06: 0</title></rect><rect x="299.0" y="229.0" width="13" height="13" rx="3" fill="#162033"><title>2026-04-07: 0</title></rect><rect x="299.0" y="246.0" width="13" height="13" rx="3" fill="#162033"><title>2026-04-08: 0</title></rect><rect x="299.0" y="263.0" width="13" height="13" rx="3" fill="#162033"><title>2026-04-09: 0</title></rect><rect x="299.0" y="280.0" width="13" height="13" rx="3" fill="#162033"><title>2026-04-10: 0</title></rect><rect x="299.0" y="297.0" width="13" height="13" rx="3" fill="#162033"><title>2026-04-11: 0</title></rect><rect x="299.0" y="314.0" width="13" height="13" rx="3" fill="#162033"><title>2026-04-12: 0</title></rect><rect x="316.0" y="212.0" width="13" height="13" rx="3" fill="#162033"><title>2026-04-13: 0</title></rect><rect x="316.0" y="229.0" width="13" height="13" rx="3" fill="#162033"><title>2026-04-14: 0</title></rect><rect x="316.0" y="246.0" width="13" height="13" rx="3" fill="#162033"><title>2026-04-15: 0</title></rect><rect x="316.0" y="263.0" width="13" height="13" rx="3" fill="#162033"><title>2026-04-16: 0</title></rect><rect x="316.0" y="280.0" width="13" height="13" rx="3" fill="#162033"><title>2026-04-17: 0</title></rect><rect x="316.0" y="297.0" width="13" height="13" rx="3" fill="#162033"><title>2026-04-18: 0</title></rect><rect x="316.0" y="314.0" width="13" height="13" rx="3" fill="#162033"><title>2026-04-19: 0</title></rect><rect x="333.0" y="212.0" width="13" height="13" rx="3" fill="#162033"><title>2026-04-20: 0</title></rect><rect x="333.0" y="229.0" width="13" height="13" rx="3" fill="#162033"><title>2026-04-21: 0</title></rect><rect x="333.0" y="246.0" width="13" height="13" rx="3" fill="#162033"><title>2026-04-22: 0</title></rect><rect x="333.0" y="263.0" width="13" height="13" rx="3" fill="#162033"><title>2026-04-23: 0</title></rect><rect x="333.0" y="280.0" width="13" height="13" rx="3" fill="#162033"><title>2026-04-24: 0</title></rect><rect x="333.0" y="297.0" width="13" height="13" rx="3" fill="#162033"><title>2026-04-25: 0</title></rect><rect x="333.0" y="314.0" width="13" height="13" rx="3" fill="#162033"><title>2026-04-26: 0</title></rect><rect x="350.0" y="212.0" width="13" height="13" rx="3" fill="#162033"><title>2026-04-27: 0</title></rect><rect x="350.0" y="229.0" width="13" height="13" rx="3" fill="#162033"><title>2026-04-28: 0</title></rect><rect x="350.0" y="246.0" width="13" height="13" rx="3" fill="#162033"><title>2026-04-29: 0</title></rect><rect x="350.0" y="263.0" width="13" height="13" rx="3" fill="#162033"><title>2026-04-30: 0</title></rect><rect x="350.0" y="280.0" width="13" height="13" rx="3" fill="#162033"><title>2026-05-01: 0</title></rect><rect x="350.0" y="297.0" width="13" height="13" rx="3" fill="#162033"><title>2026-05-02: 0</title></rect><rect x="350.0" y="314.0" width="13" height="13" rx="3" fill="#162033"><title>2026-05-03: 0</title></rect><rect x="367.0" y="212.0" width="13" height="13" rx="3" fill="#162033"><title>2026-05-04: 0</title></rect><rect x="367.0" y="229.0" width="13" height="13" rx="3" fill="#162033"><title>2026-05-05: 0</title></rect><rect x="367.0" y="246.0" width="13" height="13" rx="3" fill="#162033"><title>2026-05-06: 0</title></rect><rect x="367.0" y="263.0" width="13" height="13" rx="3" fill="#162033"><title>2026-05-07: 0</title></rect><rect x="367.0" y="280.0" width="13" height="13" rx="3" fill="#162033"><title>2026-05-08: 0</title></rect><rect x="367.0" y="297.0" width="13" height="13" rx="3" fill="#162033"><title>2026-05-09: 0</title></rect><rect x="367.0" y="314.0" width="13" height="13" rx="3" fill="#162033"><title>2026-05-10: 0</title></rect><rect x="384.0" y="212.0" width="13" height="13" rx="3" fill="#162033"><title>2026-05-11: 0</title></rect><rect x="384.0" y="229.0" width="13" height="13" rx="3" fill="#162033"><title>2026-05-12: 0</title></rect><rect x="384.0" y="246.0" width="13" height="13" rx="3" fill="#162033"><title>2026-05-13: 0</title></rect><rect x="384.0" y="263.0" width="13" height="13" rx="3" fill="#162033"><title>2026-05-14: 0</title></rect><rect x="384.0" y="280.0" width="13" height="13" rx="3" fill="#162033"><title>2026-05-15: 0</title></rect><rect x="384.0" y="297.0" width="13" height="13" rx="3" fill="#162033"><title>2026-05-16: 0</title></rect><rect x="384.0" y="314.0" width="13" height="13" rx="3" fill="#162033"><title>2026-05-17: 0</title></rect><rect x="401.0" y="212.0" width="13" height="13" rx="3" fill="#162033"><title>2026-05-18: 0</title></rect><rect x="401.0" y="229.0" width="13" height="13" rx="3" fill="#162033"><title>2026-05-19: 0</title></rect><rect x="401.0" y="246.0" width="13" height="13" rx="3" fill="#162033"><title>2026-05-20: 0</title></rect><rect x="401.0" y="263.0" width="13" height="13" rx="3" fill="#162033"><title>2026-05-21: 0</title></rect><rect x="401.0" y="280.0" width="13" height="13" rx="3" fill="#162033"><title>2026-05-22: 0</title></rect><rect x="401.0" y="297.0" width="13" height="13" rx="3" fill="#162033"><title>2026-05-23: 0</title></rect><rect x="401.0" y="314.0" width="13" height="13" rx="3" fill="#162033"><title>2026-05-24: 0</title></rect><rect x="418.0" y="212.0" width="13" height="13" rx="3" fill="#162033"><title>2026-05-25: 0</title></rect><rect x="418.0" y="229.0" width="13" height="13" rx="3" fill="#162033"><title>2026-05-26: 0</title></rect><rect x="418.0" y="246.0" width="13" height="13" rx="3" fill="#162033"><title>2026-05-27: 0</title></rect><rect x="418.0" y="263.0" width="13" height="13" rx="3" fill="#162033"><title>2026-05-28: 0</title></rect><rect x="418.0" y="280.0" width="13" height="13" rx="3" fill="#162033"><title>2026-05-29: 0</title></rect><rect x="418.0" y="297.0" width="13" height="13" rx="3" fill="#162033"><title>2026-05-30: 0</title></rect><rect x="418.0" y="314.0" width="13" height="13" rx="3" fill="#162033"><title>2026-05-31: 0</title></rect><rect x="435.0" y="212.0" width="13" height="13" rx="3" fill="#162033"><title>2026-06-01: 0</title></rect><rect x="435.0" y="229.0" width="13" height="13" rx="3" fill="#162033"><title>2026-06-02: 0</title></rect><rect x="435.0" y="246.0" width="13" height="13" rx="3" fill="#162033"><title>2026-06-03: 0</title></rect><rect x="435.0" y="263.0" width="13" height="13" rx="3" fill="#162033"><title>2026-06-04: 0</title></rect><rect x="435.0" y="280.0" width="13" height="13" rx="3" fill="#162033"><title>2026-06-05: 0</title></rect><rect x="435.0" y="297.0" width="13" height="13" rx="3" fill="#162033"><title>2026-06-06: 0</title></rect><rect x="435.0" y="314.0" width="13" height="13" rx="3" fill="#162033"><title>2026-06-07: 0</title></rect><rect x="452.0" y="212.0" width="13" height="13" rx="3" fill="#162033"><title>2026-06-08: 0</title></rect><rect x="452.0" y="229.0" width="13" height="13" rx="3" fill="#162033"><title>2026-06-09: 0</title></rect><rect x="452.0" y="246.0" width="13" height="13" rx="3" fill="#162033"><title>2026-06-10: 0</title></rect><rect x="452.0" y="263.0" width="13" height="13" rx="3" fill="#162033"><title>2026-06-11: 0</title></rect><rect x="452.0" y="280.0" width="13" height="13" rx="3" fill="#162033"><title>2026-06-12: 0</title></rect><rect x="452.0" y="297.0" width="13" height="13" rx="3" fill="#162033"><title>2026-06-13: 0</title></rect><rect x="452.0" y="314.0" width="13" height="13" rx="3" fill="#162033"><title>2026-06-14: 0</title></rect><rect x="469.0" y="212.0" width="13" height="13" rx="3" fill="#162033"><title>2026-06-15: 0</title></rect><rect x="469.0" y="229.0" width="13" height="13" rx="3" fill="#162033"><title>2026-06-16: 0</title></rect><rect x="469.0" y="246.0" width="13" height="13" rx="3" fill="#162033"><title>2026-06-17: 0</title></rect><rect x="469.0" y="263.0" width="13" height="13" rx="3" fill="#162033"><title>2026-06-18: 0</title></rect><rect x="469.0" y="280.0" width="13" height="13" rx="3" fill="#162033"><title>2026-06-19: 0</title></rect><rect x="469.0" y="297.0" width="13" height="13" rx="3" fill="#162033"><title>2026-06-20: 0</title></rect><rect x="469.0" y="314.0" width="13" height="13" rx="3" fill="#162033"><title>2026-06-21: 0</title></rect><rect x="486.0" y="212.0" width="13" height="13" rx="3" fill="#162033"><title>2026-06-22: 0</title></rect><rect x="486.0" y="229.0" width="13" height="13" rx="3" fill="#162033"><title>2026-06-23: 0</title></rect><rect x="486.0" y="246.0" width="13" height="13" rx="3" fill="#162033"><title>2026-06-24: 0</title></rect><rect x="486.0" y="263.0" width="13" height="13" rx="3" fill="#162033"><title>2026-06-25: 0</title></rect><rect x="486.0" y="280.0" width="13" height="13" rx="3" fill="#162033"><title>2026-06-26: 0</title></rect><rect x="486.0" y="297.0" width="13" height="13" rx="3" fill="#162033"><title>2026-06-27: 0</title></rect><rect x="486.0" y="314.0" width="13" height="13" rx="3" fill="#162033"><title>2026-06-28: 0</title></rect><rect x="503.0" y="212.0" width="13" height="13" rx="3" fill="#162033"><title>2026-06-29: 0</title></rect><rect x="503.0" y="229.0" width="13" height="13" rx="3" fill="#162033"><title>2026-06-30: 0</title></rect><rect x="503.0" y="246.0" width="13" height="13" rx="3" fill="#162033"><title>2026-07-01: 0</title></rect><rect x="503.0" y="263.0" width="13" height="13" rx="3" fill="#162033"><title>2026-07-02: 0</title></rect><rect x="503.0" y="280.0" width="13" height="13" rx="3" fill="#162033"><title>2026-07-03: 0</title></rect><rect x="503.0" y="297.0" width="13" height="13" rx="3" fill="#162033"><title>2026-07-04: 0</title></rect><rect x="503.0" y="314.0" width="13" height="13" rx="3" fill="#162033"><title>2026-07-05: 0</title></rect><rect x="520.0" y="212.0" width="13" height="13" rx="3" fill="#162033"><title>2026-07-06: 0</title></rect><rect x="520.0" y="229.0" width="13" height="13" rx="3" fill="#162033"><title>2026-07-07: 0</title></rect><rect x="520.0" y="246.0" width="13" height="13" rx="3" fill="#162033"><title>2026-07-08: 0</title></rect><rect x="520.0" y="263.0" width="13" height="13" rx="3" fill="#162033"><title>2026-07-09: 0</title></rect><rect x="520.0" y="280.0" width="13" height="13" rx="3" fill="#162033"><title>2026-07-10: 0</title></rect>
  </g>
  <text x="64" y="342" fill="#94A3B8" font-family="JetBrains Mono, Consolas, monospace" font-size="14">Commit frequency by week</text>
  <g>
    <rect x="79.0" y="422.0" width="34.1" height="4.0" rx="2" fill="#38BDF8" opacity="0.34"><title>Week of 2026-01-05: 0</title></rect><rect x="117.1" y="422.0" width="34.1" height="4.0" rx="2" fill="#38BDF8" opacity="0.34"><title>Week of 2026-01-12: 0</title></rect><rect x="155.1" y="422.0" width="34.1" height="4.0" rx="2" fill="#38BDF8" opacity="0.34"><title>Week of 2026-01-19: 0</title></rect><rect x="193.2" y="422.0" width="34.1" height="4.0" rx="2" fill="#38BDF8" opacity="0.34"><title>Week of 2026-01-26: 0</title></rect><rect x="231.3" y="422.0" width="34.1" height="4.0" rx="2" fill="#38BDF8" opacity="0.34"><title>Week of 2026-02-02: 0</title></rect><rect x="269.4" y="422.0" width="34.1" height="4.0" rx="2" fill="#38BDF8" opacity="0.34"><title>Week of 2026-02-09: 0</title></rect><rect x="307.4" y="422.0" width="34.1" height="4.0" rx="2" fill="#38BDF8" opacity="0.34"><title>Week of 2026-02-16: 0</title></rect><rect x="345.5" y="422.0" width="34.1" height="4.0" rx="2" fill="#38BDF8" opacity="0.34"><title>Week of 2026-02-23: 0</title></rect><rect x="383.6" y="422.0" width="34.1" height="4.0" rx="2" fill="#38BDF8" opacity="0.34"><title>Week of 2026-03-02: 0</title></rect><rect x="421.7" y="422.0" width="34.1" height="4.0" rx="2" fill="#38BDF8" opacity="0.34"><title>Week of 2026-03-09: 0</title></rect><rect x="459.7" y="422.0" width="34.1" height="4.0" rx="2" fill="#38BDF8" opacity="0.34"><title>Week of 2026-03-16: 0</title></rect><rect x="497.8" y="422.0" width="34.1" height="4.0" rx="2" fill="#38BDF8" opacity="0.34"><title>Week of 2026-03-23: 0</title></rect><rect x="535.9" y="422.0" width="34.1" height="4.0" rx="2" fill="#38BDF8" opacity="0.34"><title>Week of 2026-03-30: 0</title></rect><rect x="574.0" y="422.0" width="34.1" height="4.0" rx="2" fill="#38BDF8" opacity="0.34"><title>Week of 2026-04-06: 0</title></rect><rect x="612.0" y="422.0" width="34.1" height="4.0" rx="2" fill="#38BDF8" opacity="0.34"><title>Week of 2026-04-13: 0</title></rect><rect x="650.1" y="422.0" width="34.1" height="4.0" rx="2" fill="#38BDF8" opacity="0.34"><title>Week of 2026-04-20: 0</title></rect><rect x="688.2" y="422.0" width="34.1" height="4.0" rx="2" fill="#38BDF8" opacity="0.34"><title>Week of 2026-04-27: 0</title></rect><rect x="726.3" y="422.0" width="34.1" height="4.0" rx="2" fill="#38BDF8" opacity="0.34"><title>Week of 2026-05-04: 0</title></rect><rect x="764.3" y="422.0" width="34.1" height="4.0" rx="2" fill="#38BDF8" opacity="0.34"><title>Week of 2026-05-11: 0</title></rect><rect x="802.4" y="422.0" width="34.1" height="4.0" rx="2" fill="#38BDF8" opacity="0.34"><title>Week of 2026-05-18: 0</title></rect><rect x="840.5" y="422.0" width="34.1" height="4.0" rx="2" fill="#38BDF8" opacity="0.34"><title>Week of 2026-05-25: 0</title></rect><rect x="878.6" y="422.0" width="34.1" height="4.0" rx="2" fill="#38BDF8" opacity="0.34"><title>Week of 2026-06-01: 0</title></rect><rect x="916.6" y="422.0" width="34.1" height="4.0" rx="2" fill="#38BDF8" opacity="0.34"><title>Week of 2026-06-08: 0</title></rect><rect x="954.7" y="422.0" width="34.1" height="4.0" rx="2" fill="#38BDF8" opacity="0.34"><title>Week of 2026-06-15: 0</title></rect><rect x="992.8" y="422.0" width="34.1" height="4.0" rx="2" fill="#38BDF8" opacity="0.34"><title>Week of 2026-06-22: 0</title></rect><rect x="1030.9" y="422.0" width="34.1" height="4.0" rx="2" fill="#38BDF8" opacity="0.34"><title>Week of 2026-06-29: 0</title></rect><rect x="1068.9" y="422.0" width="34.1" height="4.0" rx="2" fill="#38BDF8" opacity="0.34"><title>Week of 2026-07-06: 0</title></rect>
    <polyline points="78.0,426.0 117.5,426.0 157.1,426.0 196.6,426.0 236.2,426.0 275.7,426.0 315.2,426.0 354.8,426.0 394.3,426.0 433.8,426.0 473.4,426.0 512.9,426.0 552.5,426.0 592.0,426.0 631.5,426.0 671.1,426.0 710.6,426.0 750.2,426.0 789.7,426.0 829.2,426.0 868.8,426.0 908.3,426.0 947.8,426.0 987.4,426.0 1026.9,426.0 1066.5,426.0 1106.0,426.0" fill="none" stroke="url(#accent)" stroke-width="3" stroke-linecap="round" stroke-linejoin="round"/>
  </g>
  <text x="64" y="462" fill="#94A3B8" font-family="JetBrains Mono, Consolas, monospace" font-size="14">Top Zone01 repositories by commits</text>
  
  <text x="64" y="590" fill="#64748B" font-family="JetBrains Mono, Consolas, monospace" font-size="13">
    Push days are inferred from unique repository/day commit activity in Gitea; exact push events are not exposed by the repository commit API.
  </text>
</svg>
