<svg width="1200" height="320" viewBox="0 0 1200 320" fill="none" xmlns="http://www.w3.org/2000/svg">
  <defs>
    <linearGradient id="bg" x1="0" y1="0" x2="1200" y2="320" gradientUnits="userSpaceOnUse">
      <stop offset="0" stop-color="#0B1020"/>
      <stop offset="0.52" stop-color="#101827"/>
      <stop offset="1" stop-color="#061B1F"/>
    </linearGradient>
    <linearGradient id="accent" x1="220" y1="40" x2="1040" y2="280" gradientUnits="userSpaceOnUse">
      <stop offset="0" stop-color="#00C2A8"/>
      <stop offset="0.48" stop-color="#38BDF8"/>
      <stop offset="1" stop-color="#A78BFA"/>
    </linearGradient>
    <filter id="glow" x="-20%" y="-20%" width="140%" height="140%">
      <feGaussianBlur stdDeviation="18" result="blur"/>
      <feColorMatrix in="blur" type="matrix" values="0 0 0 0 0.00 0 0 0 0 0.76 0 0 0 0 0.66 0 0 0 0.45 0"/>
      <feBlend in="SourceGraphic" mode="screen"/>
    </filter>
    <pattern id="grid" width="40" height="40" patternUnits="userSpaceOnUse">
      <path d="M40 0H0V40" stroke="#263244" stroke-width="1" opacity="0.6"/>
    </pattern>
  </defs>
  <rect width="1200" height="320" rx="24" fill="url(#bg)"/>
  <rect width="1200" height="320" rx="24" fill="url(#grid)" opacity="0.28"/>
  <path d="M-40 252C120 158 230 170 358 206C501 246 577 238 710 151C850 59 994 54 1240 121" stroke="url(#accent)" stroke-width="2" opacity="0.55"/>
  <path d="M-20 278C150 209 272 216 391 249C539 290 649 263 772 180C922 79 1021 88 1220 174" stroke="url(#accent)" stroke-width="1.4" opacity="0.3"/>
  <circle cx="936" cy="92" r="86" fill="#00C2A8" opacity="0.08" filter="url(#glow)"/>
  <circle cx="250" cy="226" r="104" fill="#A78BFA" opacity="0.08" filter="url(#glow)"/>
  <g transform="translate(74 62)">
    <rect x="0" y="0" width="88" height="88" rx="20" fill="#111827" stroke="#314154"/>
    <path d="M28 58V31.5L44 22L60 31.5V58L44 67.5L28 58Z" stroke="#00C2A8" stroke-width="5" stroke-linejoin="round"/>
    <path d="M44 22V67" stroke="#38BDF8" stroke-width="5" stroke-linecap="round"/>
  </g>
  <text x="74" y="198" fill="#E5E7EB" font-family="Inter, Segoe UI, Arial, sans-serif" font-size="42" font-weight="800">Konstantinos Chatzianastasiou</text>
  <text x="76" y="238" fill="#93A4B8" font-family="JetBrains Mono, Consolas, monospace" font-size="22">Java &amp; Go Developer • Automation Engineer • Backend Systems</text>
  <text x="76" y="274" fill="#00C2A8" font-family="JetBrains Mono, Consolas, monospace" font-size="20">Zone01 Student • Aspiring AI Engineer • Athens, Greece</text>
  <g transform="translate(825 208)" font-family="JetBrains Mono, Consolas, monospace" font-size="15" fill="#CBD5E1">
    <rect x="0" y="0" width="280" height="58" rx="12" fill="#0B1220" stroke="#2A3A4D"/>
    <circle cx="26" cy="29" r="6" fill="#00C2A8"/>
    <text x="44" y="25">build: practical systems</text>
    <text x="44" y="44" fill="#7DD3FC">status: learning in public</text>
  </g>
</svg>
